<?xml version="1.0" encoding="UTF-8"?>
<svg width="1200pt" height="1200pt" version="1.1" viewBox="0 0 1200 1200" xmlns="http://www.w3.org/2000/svg">
 <path d="m600.01 66.012c-294.93 0-534 239.07-534 534 0 294.91 239.07 533.99 534 533.99 294.9 0 533.98-239.07 533.98-533.99 0-294.92-239.08-534-533.98-534zm-366.3 476.35c1.7539-0.89844 3.8867-1.9922 6.4219-3.2773 2.4609-1.3789 5.293-2.9883 8.4727-4.7656 6.3242-3.5898 13.812-8.2422 22.176-13.883 8.3633-5.6289 17.484-12.422 27.18-20.113 9.7305-7.6914 19.836-16.547 30.492-25.992 10.609-9.4805 21.504-19.859 33.059-30.434 11.555-10.559 23.363-21.781 36.539-32.195 13.094-10.441 27.359-20.641 44.363-27.406 8.6172-3.0859 18.012-5.0391 27.574-4.7656 9.6133 0.097656 19.055 3 27.18 7.2344 4.1641 1.9336 8.0039 4.6914 11.797 7.3906 3.6719 2.8203 5.9531 5.1016 9.6484 8.2812 5.8789 5.3398 11.699 10.633 17.41 15.816 11.23 10.656 23.062 19.824 33.984 28.906 5.375 4.668 11.102 8.5312 16.441 12.602 5.3398 4.0078 10.523 7.8945 15.504 11.617 5.1367 3.5039 10.066 6.8516 14.746 10.031 4.6445 3.2539 9.0586 6.3359 13.379 8.9531 8.5781 5.375 15.984 10.234 22.32 13.812 12.492 7.5234 19.98 11.293 19.98 11.293s-1.9922-0.625-5.6641-2.0156-9.1445-3.3125-15.816-6.3359c-6.7812-2.7969-14.82-6.6367-23.977-11.242-9.2383-4.4414-19.176-10.332-30.215-16.488-10.586-6.8398-22.488-13.703-34.152-22.273-11.641-8.5938-24.371-17.16-36.156-27.758-6.0352-5.125-12.191-10.32-18.406-15.59-2.5078-1.957-6.1445-5.2422-9.0352-7.1992-2.9531-1.8594-5.7227-3.9727-9.0859-5.4375-12.805-6.9609-27.539-6.5273-41.617-1.2109-14.16 5.4609-27.625 14.543-40.234 24.445-12.613 9.9609-24.926 20.281-36.742 30.504-23.676 20.41-46.535 39.18-67.668 53.16-10.477 7.1172-20.473 13.043-29.543 17.855-9.0352 4.9062-17.219 8.5781-24.012 11.387-3.4219 1.3555-6.4688 2.5664-9.1211 3.6133-2.7109 0.89844-5.0156 1.6562-6.875 2.2695-3.7305 1.2344-5.7227 1.8945-5.7227 1.8945 0 0.003906 1.8828-0.90625 5.375-2.6836zm103.3 35.531c2.5195-0.023437 5.5195 0.12109 9.0234 0.011719 3.4805-0.097656 7.4141-0.19141 11.664-0.14453 4.2617 0.023437 8.9023-0.43359 13.754-0.49219 4.8711-0.22656 9.9961-0.16797 15.289-0.66016 5.293-0.33594 10.766-0.85156 16.309-1.0781 5.5547-0.10938 11.16-0.98438 16.777-1.6094 5.6289-0.53906 11.242-1.0781 16.777-1.6211 5.5195-0.66016 10.922-1.5977 16.164-2.3516 5.2422-0.83984 10.344-1.4648 15.191-2.0742 4.8828-0.49219 9.3477-1.6094 13.547-2.3516 16.727-3.3008 28.344-4.6094 28.344-4.6094s-10.43 4.8594-26.773 10.812c-4.0938 1.4414-8.4844 3.3125-13.344 4.2734-4.8242 1.1992-9.9102 2.4844-15.227 3.6133-5.3281 1.043-10.754 2.6641-16.43 3.3594-5.6641 0.66016-11.426 1.3438-17.184 2.0273-5.7734 0.50391-11.531 1.2734-17.258 1.2461-5.7109 0.17969-11.328 0.070312-16.766 0.14453-5.4102 0.20312-10.668-0.52734-15.637-0.85156-4.9688-0.42187-9.6602-0.70703-13.945-1.4414-4.3086-0.66016-8.2305-1.3672-11.699-2.0039-3.4688-0.52734-6.4688-1.4883-8.9297-2.0508-4.9062-1.1992-7.6211-2.2188-7.6211-2.2188 0.003906 0 2.9453 0.14453 7.9727 0.070312zm-17.242-19.176c-4.5977 0.058594-8.9297 0.085938-12.938-0.16797-16.008-0.60156-26.387-3.4453-26.387-3.4453s10.621-0.91016 26.137-2.9141c3.8633-0.53906 8.0625-1.1172 12.492-1.7266 4.4023-0.71875 9.0469-1.4766 13.848-2.2578 4.7773-0.82812 9.707-1.7539 14.699-2.7734 5.0039-0.89844 10.043-2.0273 15.059-3.2773 5.0742-0.97266 10.043-2.3867 14.977-3.6367 4.9336-1.2227 9.7188-2.6992 14.398-3.9961 4.6914-1.2617 9.0859-2.8555 13.379-4.1289 4.2852-1.2852 8.2578-2.6992 11.953-3.9961 3.6719-1.3672 7.1523-2.3516 10.129-3.5039 2.9648-1.1992 5.6055-2.125 7.7656-2.9297 4.3555-1.5586 6.9258-2.375 6.9258-2.375s-2.0742 1.6328-5.8789 4.332c-1.8945 1.3438-4.2109 3-6.9102 4.8008-2.7109 1.8125-5.9141 3.5508-9.4062 5.5078-3.4805 2.0039-7.2852 4.1172-11.508 5.9023-4.1875 1.8359-8.5078 4.1172-13.273 5.6758-4.7383 1.6211-9.4922 3.7812-14.605 5.0508-5.0625 1.4141-10.188 3.0234-15.422 4.1523-5.2305 1.1523-10.477 2.207-15.672 3-5.1836 0.99609-10.355 1.3438-15.324 1.8945-5.0078 0.5625-9.8789 0.63281-14.438 0.8125zm115.93 45.023c4.5586 0.42187 11.102 0.82812 18.875 1.5586 7.7656 0.64844 16.812 1.4023 26.508 2.2305 4.8477 0.35938 9.8633 0.5625 14.93 1.0781 5.0625 0.52734 10.223 0.9375 15.395 1.0547 10.309 0.61328 20.617 1.5977 30.301 1.7773 4.8477 0.13281 9.5273 0.44531 13.992 0.71875 4.4414 0.32422 8.6641 0.53906 12.551 0.50391 15.562 0.20313 26.195 1.3203 26.195 1.3203 0-0.023437-10.188 2.6055-25.871 5.0625-1.9688 0.32422-4.0078 0.63672-6.1211 0.98438-2.1367 0.14453-4.3203 0.27734-6.5742 0.44531-4.5234 0.27734-9.3008 0.63672-14.258 0.79297-4.9453 0.12109-10.066 0.61328-15.254 0.19141-5.1953-0.23828-10.465-0.44531-15.73-0.68359-5.2812-0.25391-10.512-0.80469-15.66-1.4766-5.1602-0.5625-10.223-1.4023-15.109-2.0625-4.8828-0.71875-9.5391-1.8477-13.992-2.7461-4.4531-0.89844-8.6055-1.8008-12.422-2.9297-7.6445-2.0391-13.934-4.0312-18.266-5.6758-4.3438-1.5469-6.7578-2.6758-6.7578-2.6758 0.011719 0.003906 2.6641 0.21094 7.2695 0.53125zm72.527 44.848c8.0625 0.9375 17.41 2.0625 27.469 2.7969 5.0156 0.52734 10.223 0.63672 15.492 1.0195 5.2578 0.46875 10.645 0.42188 15.996 0.66016 5.3633 0.19141 10.727 0.19141 16.008 0.27734 5.2812-0.16797 10.488-0.070312 15.539-0.13281 5.0508-0.15625 9.9258-0.3125 14.555-0.45703 4.6445-0.058594 9.0117-0.50391 13.078-0.625 4.0547-0.26562 7.8242-0.22656 11.137-0.53906 3.2891-0.26562 6.2031-0.40625 8.5938-0.53906 4.8008-0.22656 7.5703-0.26562 7.5703-0.26562s-2.5664 0.96094-7.1523 2.4492c-2.3047 0.74219-5.0898 1.6562-8.3281 2.5664-3.2148 1.0312-6.9102 1.7773-10.934 2.6875-4.0547 0.82812-8.4102 2.0039-13.129 2.543-4.7031 0.68359-9.6367 1.5-14.797 1.9922-5.1602 0.32422-10.488 0.91016-15.926 1.0938-5.4492 0.023437-10.98 0.17969-16.523 0.085937-5.5195-0.37109-11.051-0.46875-16.477-1.0547-5.4375-0.46875-10.754-1.1992-15.875-2.0391-5.1367-0.67188-10.043-1.8477-14.664-2.8555-4.6445-1.0078-8.9883-2.2578-12.961-3.4219-7.9453-2.3633-14.363-4.9922-18.781-6.9375-4.4023-2.0391-6.793-3.4219-6.793-3.4219 0.011719 0 10.836 2.0508 26.902 4.1172zm453.38-132.2c-16.969-6.0234-34.738-11.195-52.379-15.023-17.641-3.7188-35.832-6.5391-52.645-4.957-4.1523 0.39453-8.1836 1.1875-11.699 2.4375-1.7656 0.53906-3.5039 1.4531-4.7891 2.1367-0.57422 0.40625-1.0195 0.53906-1.7539 1.0781l-2.3047 1.9922-0.14453 0.13281-0.25391 0.27734-0.50391 0.5625-0.99609 1.1289c-0.66016 0.74219-1.3906 1.4648-2.0273 2.2578-1.1523 1.668-2.4375 3.2539-3.5508 4.9805-2.207 3.4805-4.1523 7.1758-5.832 11.062-6.7578 15.695-9.6719 33.758-12.434 51.91-2.7109 18.227-5.0898 36.91-9.2656 55.535-4.2227 18.59-10.188 37.273-19.859 54.383-4.7383 8.6055-10.367 16.766-16.848 24.191-6.3711 7.5703-13.586 14.207-21.434 20.328l-6.0234 4.5234c-1.9922 1.4023-3.9102 2.5664-5.8555 3.8633l-2.9141 1.8945c-0.63672 0.37109-0.70703 0.49219-1.7383 1.0781l-1.6094 0.88672-6.3945 3.5273c-8.5938 4.5586-17.34 8.375-26.172 11.914-17.652 6.9727-35.617 12.66-53.652 17.832-18.035 5.2305-36.191 9.6133-54.383 13.871-36.422 8.3516-73.043 15.348-109.77 21.648-36.719 6.2656-73.535 11.832-110.43 16.859-36.898 5.0039-73.777 9.5625-110.89 13.43l-45.457 4.7539 40.656-20.41 24.613-12.371 24.852-11.41c8.2578-3.875 16.645-7.2969 24.973-10.957 8.3398-3.625 16.68-7.2344 25.066-10.668 12.84-5.3984 25.738-10.621 38.629-15.84l-4.4414 0.39453c-3.9961 0.30078-7.9688 0.83984-11.977 0.83984l-12.012 0.3125-12.012 0.28906c-4.0078 0.19141-8.0273 0.14453-12.023-0.011718l-12.047-0.30078c-4.0078-0.14453-8.0273-0.085937-12.047-0.53906-4.0078-0.3125-8.0156-0.79297-12.023-1.2109-4.0078-0.35937-8.0156-0.89844-12-1.668-4.0078-0.73047-7.9805-1.3086-11.977-2.1484-4.043-0.96094-7.8711-1.6562-12.156-2.8789l-28.402-8.125 28.801-6.3125 27.793-6.0859 13.934-3.0469 13.703-3.9844 13.715-4.0078c4.5703-1.3789 9.1914-2.5938 13.715-4.1055l27-9.5508c4.5117-1.5703 9.0352-3.168 13.43-5.0508l13.285-5.4102 13.309-5.3984 13.105-5.8672 13.141-5.8672 12.949-6.2539c8.6641-4.1172 17.16-8.5664 25.609-13.164-8.0625 5.2188-16.246 10.285-24.613 15.035l-12.492 7.2344-12.73 6.8164-12.758 6.793-13.031 6.2539-13.043 6.2539c-4.3203 2.1719-8.7617 4.043-13.211 5.9023l-26.688 11.305c-4.4883 1.7891-9.0859 3.3125-13.621 4.9922l-13.703 4.9336-13.691 4.9062-6.4062 1.8125c3.4219 0.23828 6.8516 0.45703 10.246 0.79297 3.8281 0.46875 7.7148 0.40625 11.566 0.63672l11.617 0.45703c3.875 0.20312 7.7539 0.37109 11.641 0.15625l11.641-0.28906 11.641-0.30078c3.8867 0.023437 7.7539-0.52734 11.617-0.81641l23.242-2.0508c3.8984-0.25391 7.7383-0.80469 11.594-1.4414l11.543-1.7891 23.074-3.5508 76.441-11.762-71.902 27.793c-33.648 12.996-67.262 26.375-100.52 40.344-8.3633 3.4336-16.621 7.0312-24.898 10.598-8.2578 3.6367-16.621 7.043-24.742 10.871l-4.4648 2.0508c20.543-2.4609 41.09-5.0625 61.57-7.8477 36.719-5.0039 73.355-10.535 109.86-16.789 36.504-6.2266 72.852-13.199 108.83-21.445 17.977-4.1992 35.902-8.5312 53.578-13.668 17.641-5.0625 35.148-10.609 52.031-17.27 8.4102-3.3945 16.703-7.0195 24.504-11.172l5.8086-3.1914 1.4414-0.78125c0 0.046875 0.83984-0.52734 1.2227-0.76953l2.9141-1.8828c1.9062-1.2734 3.9609-2.5312 5.7617-3.793l5.0898-3.8633c6.7812-5.293 13.332-11.293 18.887-17.941 5.7461-6.5625 10.727-13.754 14.953-21.434 8.6523-15.254 14.148-32.34 18.145-49.922 3.9727-17.629 6.3008-35.82 9.0469-54.336 2.832-18.434 5.7227-37.5 13.621-56.102 2.0039-4.6094 4.3906-9.1328 7.1523-13.512 1.4297-2.1719 3.0234-4.2344 4.5859-6.3359 0.78125-1.0312 1.7148-1.9805 2.5781-2.9648l1.332-1.4766 0.66016-0.71875 0.3125-0.37109 0.19141-0.17969c0.25391-0.25391-0.37109 0.3125 0.60156-0.60156l2.6641-2.2578c1.1055-0.85156 2.6875-1.8711 4.0547-2.7344 2.7461-1.5352 5.2305-2.7109 7.8828-3.5625 5.2305-1.8359 10.402-2.7852 15.48-3.2891 20.293-1.8359 39.277 1.3789 57.875 5.2422 8.543 1.8594 16.895 3.9844 25.246 6.3359l-57.875-64.906-0.63672-0.71875-0.52734-0.875c-2.7734-4.7891-6.5742-10.043-10.355-14.746-3.8516-4.7539-7.9922-9.3125-12.434-13.488-8.8789-8.3281-18.852-15.457-29.711-20.16-5.3867-2.4727-11.074-4.1055-16.801-5.2812-5.7227-1.2461-11.594-1.4023-17.438-1.3672-5.8438 0.42188-11.711 1.0938-17.449 2.7227l-4.3086 1.1406-4.2461 1.5234c-2.8555 0.91016-5.5938 2.1719-8.3516 3.4336-2.7852 1.1406-5.4727 2.6523-8.1367 4.1172-2.7344 1.3672-5.3047 3.0586-7.8711 4.7656-2.6172 1.6328-5.1602 3.3477-7.6094 5.2695l-3.7422 2.7734-1.6328 1.1992-1.8711 1.5586c-5.3164 4.3203-10.766 8.1484-16.246 11.914-5.6523 3.5039-11.09 7.3086-16.871 10.559-5.7852 3.2656-11.375 6.8047-17.363 9.6836-5.9531 2.9141-11.664 6.2656-17.844 8.7227-3.2539 1.3555-6.457 2.7852-9.6953 4.1875 2.0273-0.058593 4.043-0.14453 6.0469-0.34766 3.8867-0.3125 7.7773-0.52734 11.652-0.94922l11.566-1.6328c3.8867-0.38281 7.5859-1.5703 11.41-2.3281l5.7109-1.2852c1.9062-0.32422 3.6719-1.1875 5.5195-1.7383l11.004-3.8047 5.1602-1.7773-1.8125 4.668c-0.70703 1.7383-1.3555 2.8906-2.1367 4.2344l-2.3984 3.7188c-1.8125 2.2578-3.4336 4.7266-5.4102 6.793-1.9805 2.0898-3.8164 4.3203-5.8672 6.3008l-6.2148 5.9023c-2.0391 2.0039-4.3555 3.6953-6.4805 5.543-2.2188 1.8008-4.3672 3.6602-6.6133 5.4102l-13.727 10.031 12.949-10.969c2.1016-1.9062 4.1055-3.8867 6.1445-5.8203 2.0156-2.0039 4.1758-3.8164 6.0234-5.9414l5.6758-6.2148c1.8945-2.0742 3.5039-4.3672 5.2578-6.5156 1.7891-2.1602 3.1328-4.5703 4.7148-6.8398l0.94922-1.7031-5.3633 2.2305c-1.8945 0.69531-3.707 1.6914-5.6758 2.1602l-5.7852 1.6914c-3.8867 1.0078-7.7148 2.4844-11.688 3.1328l-11.82 2.4102c-3.9727 0.67187-7.9453 1.1172-11.941 1.6914-3.9844 0.63672-7.9922 0.85156-11.988 1.2227-4.0078 0.42188-8.0273 0.5625-12.07 0.74219-4.043 0.21484-8.0039 0.22656-12.203 0.17969l-25.738-0.23828 24.395-10.055 17.641-7.2734c5.8672-2.4375 11.438-5.6406 17.148-8.3984 5.7461-2.6875 11.09-6.2891 16.621-9.4062 5.5547-3.0703 10.754-6.8281 16.078-10.273 5.3516-3.4453 10.344-7.4023 15.527-11.062 4.9922-3.9375 10.043-7.7656 14.797-11.641l1.8711-1.5586 2.2812-1.6797 4.1289-2.9883c2.7109-2.0391 5.5781-3.8984 8.4961-5.6875 2.8555-1.8477 5.7734-3.625 8.8555-5.1953 3.0234-1.6562 6.0234-3.3359 9.2383-4.668 3.1562-1.4414 6.3125-2.8672 9.6484-3.9609l4.9453-1.7539 5.1016-1.3555c6.7812-1.8945 13.883-2.7734 20.965-3.2383 7.1172-0.097656 14.316 0.16797 21.312 1.668 6.9609 1.4141 13.848 3.4453 20.293 6.3711 12.984 5.6406 24.457 13.922 34.465 23.328 5.0273 4.7148 9.6836 9.793 13.992 15.121 4.1055 5.1484 7.7773 10.176 11.352 16.141l77.832 87.301 21.695 24.324z"/>
</svg>
